<svg xmlns="http://www.w3.org/2000/svg" xmlns:xlink="http://www.w3.org/1999/xlink" width="500" zoomAndPan="magnify" viewBox="0 0 375 374.999991" height="500" preserveAspectRatio="xMidYMid meet" version="1.0"><defs><clipPath id="cd544a075c"><path d="M 4.996094 4.996094 L 370 4.996094 L 370 370.246094 L 4.996094 370.246094 Z M 4.996094 4.996094 " clip-rule="nonzero"/></clipPath></defs><g clip-path="url(#cd544a075c)"><path fill="#000000" d="M 301.515625 4.996094 L 73.234375 4.996094 C 35.40625 4.996094 4.75 35.652344 4.75 73.480469 L 4.75 301.761719 C 4.75 339.585938 35.40625 370.246094 73.234375 370.246094 L 301.515625 370.246094 C 339.339844 370.246094 370 339.585938 370 301.761719 L 370 73.480469 C 370 35.652344 339.339844 4.996094 301.515625 4.996094 Z M 301.515625 4.996094 " fill-opacity="1" fill-rule="nonzero"/></g><path fill="#fc573b" d="M 116.652344 136.257812 L 124.800781 144.417969 L 156.578125 176.535156 L 196.4375 136.257812 L 217.09375 157.074219 L 197.714844 176.59375 L 177.113281 197.46875 L 156.578125 218.230469 L 96.0625 157.074219 Z M 116.652344 136.257812 " fill-opacity="1" fill-rule="nonzero"/><path fill="#fd907e" d="M 218.167969 197.320312 L 258.09375 156.984375 L 278.6875 177.824219 L 218.167969 238.984375 L 183.480469 203.929688 L 204.140625 183.078125 Z M 218.167969 197.320312 " fill-opacity="1" fill-rule="nonzero"/></svg>